# xmcd
#
# Track frame offsets:
#	150
#	13525
#	28176
#	49906
#	65481
#	79072
#	96366
#	107779
#	126754
#	138161
#	152953
#	181437
#
# Disc length: 2932 seconds
#
# Revision: 0
# Processed by: cddbd v1.5.1PL2 Copyright (c) Steve Scherf et al.
# Submitted via: dBpowerAMP V4.0
#
DISCID=a20b720c
DTITLE=D'Bänkelsänger - emmer am Jumm
DYEAR=1900
DGENRE=Country
TTITLE0=ech drénken gär main Pättchen
TTITLE1=Potpourri 1
TTITLE2=Manyla
TTITLE3=Léif Munni Mausikaz
TTITLE4=de Charel
TTITLE5=Potpourri 2
TTITLE6=de Néckel dee gong freien
TTITLE7=U-u-u-u-u-genie
TTITLE8=de Pättchen seet mir emmer zou
TTITLE9=op eemol as een 50
TTITLE10=Potpourri 3
TTITLE11=Dicksiana
EXTD=
EXTT0=
EXTT1=
EXTT2=
EXTT3=
EXTT4=
EXTT5=
EXTT6=
EXTT7=
EXTT8=
EXTT9=
EXTT10=
EXTT11=
PLAYORDER=
